<?xml version="1.0" standalone="no"?>
<!DOCTYPE svg PUBLIC "-//W3C//DTD SVG 20010904//EN"
 "http://www.w3.org/TR/2001/REC-SVG-20010904/DTD/svg10.dtd">
<svg version="1.0" xmlns="http://www.w3.org/2000/svg"
 width="3600.000000pt" height="1200.000000pt" viewBox="0 0 3600.000000 1200.000000"
 preserveAspectRatio="xMidYMid meet">

<g transform="translate(0.000000,1200.000000) scale(0.100000,-0.100000)"
fill="#000000" stroke="none">
<path d="M21110 11486 c0 -2 16 -49 35 -104 187 -538 498 -868 964 -1021 390
-128 952 -116 1319 28 334 132 594 376 762 716 53 108 150 353 150 381 0 2
-177 4 -392 4 l-393 -1 -32 -67 c-99 -204 -277 -347 -511 -409 -88 -24 -114
-26 -287 -26 -174 0 -198 2 -289 26 -236 63 -406 198 -503 398 l-38 78 -392 1
c-216 0 -393 -2 -393 -4z"/>
<path d="M27504 11357 c-331 -416 -802 -808 -1286 -1069 l-97 -53 -1 -652 0
-651 103 55 c325 177 633 404 903 665 l114 111 0 -1967 0 -1966 -560 0 -560 0
0 -545 0 -545 1845 0 1845 0 0 545 0 545 -555 0 -555 0 0 2815 0 2815 -557 0
-558 -1 -81 -102z"/>
<path d="M1646 8097 c-500 -1821 -912 -3322 -914 -3334 l-4 -23 674 0 674 0
624 2614 c344 1438 626 2613 628 2612 1 -2 295 -1162 653 -2577 357 -1416 654
-2591 660 -2611 l10 -38 725 0 726 0 -6 25 c-7 29 -1848 6480 -1877 6578 l-20
67 -822 0 -822 0 -909 -3313z"/>
<path d="M30918 9548 c-65 -1024 -116 -1864 -114 -1866 4 -4 1140 -222 1141
-219 1 1 22 45 48 97 142 291 387 431 727 417 223 -10 377 -73 515 -212 136
-137 227 -326 272 -565 24 -128 24 -482 0 -620 -71 -414 -256 -648 -574 -727
-106 -26 -372 -24 -476 5 -326 90 -527 352 -602 785 -9 50 -17 93 -19 94 -4 4
-1318 -215 -1324 -221 -9 -10 25 -220 58 -348 170 -675 647 -1184 1314 -1403
271 -89 488 -120 841 -119 215 1 285 5 404 23 490 75 880 258 1194 560 404
388 603 916 623 1656 22 764 -147 1352 -493 1716 -371 389 -848 587 -1363 566
-417 -17 -762 -186 -1012 -493 -28 -35 -53 -62 -55 -60 -2 2 15 323 37 713 22
391 40 726 40 747 l0 36 1180 0 c1009 0 1180 2 1180 14 0 17 127 1196 135
1249 l5 37 -1783 0 -1782 0 -117 -1862z"/>
<path d="M17760 9759 c-348 -33 -663 -149 -921 -340 -509 -378 -791 -963 -874
-1814 -21 -205 -24 -671 -6 -855 87 -918 461 -1586 1060 -1894 296 -152 568
-210 976 -210 390 -1 662 54 942 189 432 207 729 573 907 1114 51 158 112 398
102 408 -2 3 -276 22 -607 43 -467 30 -605 36 -611 27 -4 -7 -8 -24 -8 -39 0
-15 -9 -74 -20 -131 -80 -414 -290 -633 -627 -654 -129 -8 -222 9 -321 57
-148 71 -255 199 -308 365 -54 169 -84 456 -84 803 l0 152 1297 0 1296 0 -6
233 c-28 973 -219 1617 -595 1994 -324 327 -699 505 -1161 552 -116 12 -304
12 -431 0z m405 -914 c259 -55 424 -273 475 -630 14 -100 24 -344 16 -388 l-7
-37 -640 0 -640 0 6 108 c17 293 56 479 136 641 106 215 268 318 504 320 44 0
112 -6 150 -14z"/>
<path d="M6510 7205 l0 -2465 685 0 685 0 0 293 0 292 437 660 c240 363 490
748 555 854 l118 195 0 -1147 0 -1147 690 0 690 0 0 2465 0 2465 -690 0 -690
0 0 -320 0 -320 -552 -859 -553 -860 -3 1180 -2 1179 -685 0 -685 0 0 -2465z"/>
<path d="M11380 7205 l0 -2465 1614 0 1615 0 6 -42 c7 -57 115 -1087 115
-1105 0 -11 89 -13 495 -13 l495 0 0 1110 0 1110 -305 0 -305 0 0 1935 0 1935
-685 0 -685 0 0 -1935 0 -1935 -495 0 -495 0 0 1935 0 1935 -685 0 -685 0 0
-2465z"/>
<path d="M20760 7205 l0 -2465 690 0 690 0 0 297 0 296 443 671 c244 369 493
752 553 851 l109 180 3 -1147 2 -1148 685 0 685 0 0 2465 0 2465 -685 0 -685
0 0 -316 0 -315 -556 -865 c-305 -475 -558 -864 -560 -864 -3 0 -2 531 2 1180
l7 1180 -691 0 -692 0 0 -2465z"/>
<path d="M18725 3714 c-286 -46 -466 -222 -550 -535 -42 -160 -58 -328 -52
-559 7 -287 40 -448 124 -620 38 -77 63 -111 128 -176 87 -88 158 -130 275
-161 90 -24 300 -24 390 0 291 80 454 308 511 717 20 143 17 489 -5 625 -63
388 -229 616 -501 690 -60 16 -263 28 -320 19z m239 -391 c85 -60 119 -174
137 -461 12 -203 0 -495 -26 -617 -32 -152 -99 -231 -207 -242 -144 -15 -225
73 -265 287 -22 120 -25 628 -5 755 37 230 114 322 261 311 49 -3 72 -10 105
-33z"/>
<path d="M24051 3638 c63 -162 174 -259 336 -293 131 -28 280 -12 383 40 74
38 151 118 187 195 56 119 63 110 -74 110 l-119 0 -17 -34 c-62 -131 -313
-157 -425 -45 -23 22 -44 49 -47 60 -6 17 -17 19 -126 19 l-119 0 21 -52z"/>
<path d="M22995 3194 c-11 -2 -45 -9 -75 -15 -147 -29 -298 -138 -359 -260
-31 -62 -59 -164 -48 -176 5 -4 309 -39 378 -43 4 0 9 22 13 48 8 61 43 130
79 156 22 16 44 21 94 21 60 0 67 -2 93 -31 32 -36 50 -119 50 -227 l0 -65
-67 -7 c-212 -20 -391 -68 -486 -128 -146 -94 -214 -241 -205 -447 4 -92 8
-115 35 -171 77 -162 250 -239 445 -198 109 23 220 104 276 199 l27 45 8 -75
c4 -41 10 -90 13 -107 l5 -33 191 0 190 0 -7 28 c-4 15 -10 275 -15 577 -8
582 -10 608 -58 701 -40 78 -144 152 -262 189 -53 16 -271 30 -315 19z m225
-891 c-1 -104 -21 -226 -45 -274 -53 -104 -146 -146 -223 -99 -47 29 -65 78
-64 176 0 159 63 230 237 269 101 23 95 27 95 -72z"/>
<path d="M31506 3183 c-227 -48 -363 -203 -423 -483 -14 -66 -18 -129 -18
-280 0 -217 13 -305 66 -440 80 -207 250 -324 489 -337 180 -10 342 41 443
140 126 123 185 297 194 577 17 490 -134 764 -453 825 -95 19 -208 18 -298 -2z
m250 -316 c45 -49 63 -118 75 -294 12 -178 0 -419 -27 -514 -20 -71 -59 -115
-109 -125 -88 -16 -150 26 -180 123 -23 77 -34 507 -15 637 22 153 78 222 174
213 41 -4 55 -11 82 -40z"/>
<path d="M34195 3194 c-11 -2 -45 -9 -75 -15 -147 -29 -298 -138 -359 -260
-31 -62 -59 -164 -48 -176 5 -4 309 -39 378 -43 4 0 9 22 13 48 8 61 43 130
79 156 22 16 44 21 94 21 60 0 67 -2 93 -31 32 -36 50 -119 50 -227 l0 -65
-67 -7 c-212 -20 -391 -68 -486 -128 -146 -94 -214 -241 -205 -447 4 -92 8
-115 35 -171 77 -162 250 -239 445 -198 109 23 220 104 276 199 l27 45 8 -75
c4 -41 10 -90 13 -107 l5 -33 191 0 190 0 -7 28 c-4 15 -10 275 -15 577 -8
582 -10 608 -58 701 -40 78 -144 152 -262 189 -53 16 -271 30 -315 19z m225
-891 c-1 -104 -21 -226 -45 -274 -53 -104 -146 -146 -223 -99 -47 29 -65 78
-64 176 0 159 63 230 237 269 101 23 95 27 95 -72z"/>
<path d="M19840 2420 l0 -740 205 0 205 0 2 313 3 312 163 3 162 2 0 -315 0
-315 210 0 210 0 0 740 0 740 -210 0 -210 0 0 -265 0 -265 -165 0 -165 0 0
265 0 265 -205 0 -205 0 0 -740z"/>
<path d="M21535 3148 c-2 -7 -99 -332 -214 -722 -116 -390 -213 -717 -216
-727 -6 -18 3 -19 184 -19 105 0 191 2 191 5 0 11 242 940 246 944 2 2 4 1 4
-2 0 -5 179 -773 215 -924 5 -23 6 -23 215 -23 149 0 210 3 210 11 0 9 -365
1346 -396 1452 -5 15 -24 17 -220 17 -163 0 -216 -3 -219 -12z"/>
<path d="M23940 2420 l0 -740 205 0 205 0 0 89 0 89 163 249 162 249 3 -338 2
-338 205 0 205 0 0 740 0 740 -205 0 -205 0 0 -96 0 -96 -162 -253 -163 -253
-3 349 -2 349 -205 0 -205 0 0 -740z"/>
<path d="M25390 2420 l0 -740 205 0 205 0 2 313 3 312 163 3 162 2 0 -315 0
-315 210 0 210 0 0 740 0 740 -210 0 -210 0 0 -265 0 -265 -165 0 -165 0 0
265 0 265 -205 0 -205 0 0 -740z"/>
<path d="M27680 2420 l0 -740 875 0 875 0 0 740 0 740 -205 0 -205 0 0 -580 0
-580 -130 0 -130 0 0 580 0 580 -205 0 -205 0 0 -580 0 -580 -130 0 -130 0 0
580 0 580 -205 0 -205 0 0 -740z"/>
<path d="M29740 2420 l0 -740 210 0 210 0 0 243 0 242 71 98 c39 54 73 96 75
94 3 -2 56 -154 118 -338 l114 -334 221 -3 c122 -1 221 -1 221 1 0 2 -92 223
-204 492 l-204 489 184 243 c101 134 184 245 184 248 0 3 -83 5 -184 5 l-184
0 -204 -279 -203 -279 -3 279 -2 279 -210 0 -210 0 0 -740z"/>
<path d="M32735 3148 c-2 -7 -99 -332 -214 -722 -116 -390 -213 -717 -216
-727 -6 -18 3 -19 184 -19 105 0 191 2 191 5 0 11 242 940 246 944 2 2 4 1 4
-2 0 -5 179 -773 215 -924 5 -23 6 -23 215 -23 149 0 210 3 210 11 0 9 -365
1346 -396 1452 -5 15 -24 17 -220 17 -163 0 -216 -3 -219 -12z"/>
<path d="M26810 2440 l0 -160 300 0 300 0 0 160 0 160 -300 0 -300 0 0 -160z"/>
</g>
</svg>
